<svg xmlns="http://www.w3.org/2000/svg" width="1200" height="340" viewBox="0 0 1200 340">
  <defs>
    <linearGradient id="bg" x1="0" y1="0" x2="1" y2="1">
      <stop offset="0" stop-color="#0c0d10"/>
      <stop offset="1" stop-color="#15171c"/>
    </linearGradient>
  </defs>
  <rect width="1200" height="340" fill="url(#bg)"/>
  <rect x="0.5" y="0.5" width="1199" height="339" fill="none" stroke="#262a32"/>
  <text x="90" y="178" font-family="Georgia, 'Times New Roman', serif" font-weight="700" font-size="150" fill="#eae6dd">1<tspan fill="#e8622c">%</tspan></text>
  <text x="94" y="228" font-family="Georgia, serif" font-style="italic" font-size="24" fill="#918d85">Get one percent better every day.</text>
  <text x="94" y="272" font-family="Verdana, Geneva, sans-serif" font-size="14" letter-spacing="3" fill="#5c5952">OFFLINE · PRIVATE · MODULAR · PWA</text>
  <circle cx="960" cy="170" r="118" fill="none" stroke="#262a32" stroke-width="2"/>
  <path d="M 960 52 A 118 118 0 0 1 992 56.4" fill="none" stroke="#e8622c" stroke-width="9" stroke-linecap="round"/>
  <circle cx="960" cy="170" r="92" fill="none" stroke="#e8622c" stroke-width="12" stroke-dasharray="128 450" stroke-dashoffset="-8" transform="rotate(-90 960 170)" stroke-linecap="round"/>
  <circle cx="960" cy="170" r="92" fill="none" stroke="#8fa7c9" stroke-width="12" stroke-dasharray="128 450" stroke-dashoffset="-152" transform="rotate(-90 960 170)" stroke-linecap="round"/>
  <circle cx="960" cy="170" r="92" fill="none" stroke="#7fa98e" stroke-width="12" stroke-dasharray="128 450" stroke-dashoffset="-296" transform="rotate(-90 960 170)" stroke-linecap="round"/>
  <circle cx="960" cy="170" r="92" fill="none" stroke="#c89b4b" stroke-width="12" stroke-dasharray="128 450" stroke-dashoffset="-440" transform="rotate(-90 960 170)" stroke-linecap="round"/>
  <text x="960" y="182" text-anchor="middle" font-family="Georgia, serif" font-weight="700" font-size="34" fill="#eae6dd">v0.1</text>
  <g font-family="Verdana, Geneva, sans-serif" font-size="13" letter-spacing="2">
    <circle cx="700" cy="308" r="4" fill="#e8622c"/><text x="712" y="313" fill="#918d85">GHISA</text>
    <circle cx="800" cy="308" r="4" fill="#8fa7c9"/><text x="812" y="313" fill="#918d85">CADENCE</text>
    <circle cx="924" cy="308" r="4" fill="#7fa98e"/><text x="936" y="313" fill="#918d85">RESPIRO</text>
    <circle cx="1044" cy="308" r="4" fill="#c89b4b"/><text x="1056" y="313" fill="#918d85">CALIBER</text>
  </g>
</svg>
